<svg width="199" height="25" viewBox="0 0 199 25" fill="none" xmlns="http://www.w3.org/2000/svg">
<path d="M14.875 19.3125H6.65625L5.09375 24H0.109375L8.57812 1.25H12.9219L21.4375 24H16.4531L14.875 19.3125ZM7.92188 15.5156H13.6094L10.75 7L7.92188 15.5156ZM28.57 15.9844V24H23.8825V1.25H32.7575C34.4658 1.25 35.9658 1.5625 37.2575 2.1875C38.5596 2.8125 39.5596 3.70312 40.2575 4.85938C40.9554 6.00521 41.3044 7.3125 41.3044 8.78125C41.3044 11.0104 40.5387 12.7708 39.0075 14.0625C37.4867 15.3438 35.3773 15.9844 32.6794 15.9844H28.57ZM28.57 12.1875H32.7575C33.9971 12.1875 34.9398 11.8958 35.5856 11.3125C36.2419 10.7292 36.57 9.89583 36.57 8.8125C36.57 7.69792 36.2419 6.79688 35.5856 6.10938C34.9294 5.42188 34.0231 5.06771 32.8669 5.04688H28.57V12.1875ZM51.1556 1.25H55.8431V17C55.8431 18.4479 55.5202 19.7292 54.8744 20.8438C54.239 21.9479 53.3379 22.8021 52.1712 23.4062C51.0046 24.0104 49.6869 24.3125 48.2181 24.3125C45.8119 24.3125 43.9369 23.7031 42.5931 22.4844C41.2494 21.2552 40.5775 19.5208 40.5775 17.2812H45.2962C45.2962 18.3958 45.5306 19.2188 45.9994 19.75C46.4681 20.2812 47.2077 20.5469 48.2181 20.5469C49.114 20.5469 49.8275 20.2396 50.3587 19.625C50.89 19.0104 51.1556 18.1354 51.1556 17V1.25Z" fill="#FFAD4C"/>
<path d="M82.155 14.7031H73.155V24H68.4675V1.25H83.28V5.04688H73.155V10.9219H82.155V14.7031ZM95.8031 22.2812C94.6885 23.6354 93.1469 24.3125 91.1781 24.3125C89.3656 24.3125 87.9802 23.7917 87.0219 22.75C86.074 21.7083 85.5896 20.1823 85.5687 18.1719V7.09375H90.0844V18.0156C90.0844 19.776 90.8865 20.6562 92.4906 20.6562C94.0219 20.6562 95.074 20.125 95.6469 19.0625V7.09375H100.178V24H95.9281L95.8031 22.2812ZM113.404 11.3281C112.79 11.2448 112.248 11.2031 111.779 11.2031C110.071 11.2031 108.951 11.7812 108.42 12.9375V24H103.904V7.09375H108.17L108.295 9.10938C109.201 7.55729 110.456 6.78125 112.061 6.78125C112.561 6.78125 113.029 6.84896 113.467 6.98438L113.404 11.3281ZM120.068 7.09375L120.209 9.04688C121.417 7.53646 123.037 6.78125 125.068 6.78125C126.86 6.78125 128.193 7.30729 129.068 8.35938C129.943 9.41146 130.391 10.9844 130.412 13.0781V24H125.896V13.1875C125.896 12.2292 125.688 11.5365 125.271 11.1094C124.855 10.6719 124.162 10.4531 123.193 10.4531C121.922 10.4531 120.969 10.9948 120.334 12.0781V24H115.818V7.09375H120.068ZM138.935 24H134.404V7.09375H138.935V24ZM134.138 2.71875C134.138 2.04167 134.362 1.48438 134.81 1.04688C135.268 0.609375 135.888 0.390625 136.669 0.390625C137.44 0.390625 138.055 0.609375 138.513 1.04688C138.971 1.48438 139.201 2.04167 139.201 2.71875C139.201 3.40625 138.966 3.96875 138.497 4.40625C138.039 4.84375 137.43 5.0625 136.669 5.0625C135.909 5.0625 135.294 4.84375 134.826 4.40625C134.367 3.96875 134.138 3.40625 134.138 2.71875ZM148.396 2.9375V7.09375H151.286V10.4062H148.396V18.8438C148.396 19.4688 148.515 19.9167 148.755 20.1875C148.995 20.4583 149.453 20.5938 150.13 20.5938C150.63 20.5938 151.073 20.5573 151.458 20.4844V23.9062C150.573 24.1771 149.661 24.3125 148.724 24.3125C145.557 24.3125 143.943 22.7135 143.88 19.5156V10.4062H141.411V7.09375H143.88V2.9375H148.396ZM164.247 22.2812C163.132 23.6354 161.591 24.3125 159.622 24.3125C157.809 24.3125 156.424 23.7917 155.466 22.75C154.518 21.7083 154.033 20.1823 154.012 18.1719V7.09375H158.528V18.0156C158.528 19.776 159.33 20.6562 160.934 20.6562C162.466 20.6562 163.518 20.125 164.091 19.0625V7.09375H168.622V24H164.372L164.247 22.2812ZM181.848 11.3281C181.234 11.2448 180.692 11.2031 180.223 11.2031C178.515 11.2031 177.395 11.7812 176.864 12.9375V24H172.348V7.09375H176.614L176.739 9.10938C177.645 7.55729 178.9 6.78125 180.504 6.78125C181.004 6.78125 181.473 6.84896 181.911 6.98438L181.848 11.3281ZM191.824 24.3125C189.345 24.3125 187.324 23.5521 185.762 22.0312C184.21 20.5104 183.434 18.4844 183.434 15.9531V15.5156C183.434 13.8177 183.762 12.3021 184.418 10.9688C185.074 9.625 186.001 8.59375 187.199 7.875C188.408 7.14583 189.783 6.78125 191.324 6.78125C193.637 6.78125 195.455 7.51042 196.777 8.96875C198.111 10.4271 198.777 12.4948 198.777 15.1719V17.0156H188.012C188.158 18.1198 188.595 19.0052 189.324 19.6719C190.064 20.3385 190.996 20.6719 192.121 20.6719C193.861 20.6719 195.22 20.0417 196.199 18.7812L198.418 21.2656C197.741 22.224 196.824 22.974 195.668 23.5156C194.512 24.0469 193.231 24.3125 191.824 24.3125ZM191.309 10.4375C190.413 10.4375 189.684 10.7396 189.121 11.3438C188.569 11.9479 188.215 12.8125 188.059 13.9375H194.34V13.5781C194.319 12.5781 194.048 11.8073 193.527 11.2656C193.007 10.7135 192.267 10.4375 191.309 10.4375Z" fill="#3A3A3A" fill-opacity="0.8"/>
</svg>
